<?xml version="1.0" encoding="utf-8"?>
<!-- Generator: Adobe Illustrator 17.1.0, SVG Export Plug-In . SVG Version: 6.00 Build 0)  -->
<!DOCTYPE svg PUBLIC "-//W3C//DTD SVG 1.1//EN" "http://www.w3.org/Graphics/SVG/1.1/DTD/svg11.dtd">
<svg version="1.1" id="Layer_1" xmlns="http://www.w3.org/2000/svg" xmlns:xlink="http://www.w3.org/1999/xlink" x="0px" y="0px"
	 viewBox="0 0 144 144" enable-background="new 0 0 144 144" xml:space="preserve">
<g>
	<path d="M19.997,114.785c0,0,0.104-0.29,0.305-0.851c0.219-0.555,0.457-1.408,0.932-2.465c0.875-2.153,2.361-5.232,4.665-8.915
		c2.31-3.682,5.317-7.96,8.75-12.864c3.436-4.908,7.286-10.46,11.619-16.439c4.352-5.987,9.123-12.51,15.103-18.804
		c1.516-1.555,3.033-3.152,4.718-4.648l1.242-1.147l0.312-0.288l0.078-0.072l0.14-0.12l0.157-0.131l0.631-0.525
		c0.867-0.701,1.635-1.404,2.598-2.115c0.948-0.702,1.896-1.443,2.866-2.12c0.982-0.645,1.969-1.293,2.961-1.944
		c1.027-0.6,2.06-1.203,3.096-1.808c1.071-0.55,2.147-1.102,3.227-1.657c1.112-0.496,2.228-0.994,3.349-1.494
		c1.151-0.436,2.306-0.874,3.465-1.314c1.209-0.374,2.422-0.75,3.639-1.127c0.587-0.147,1.103-0.298,1.75-0.442
		c0.655-0.135,1.333-0.305,1.974-0.403c2.578-0.458,5.278-0.675,8.055-0.475c2.768,0.209,5.63,0.856,8.289,2.132
		c2.662,1.255,5.073,3.098,7.009,5.262l0.716,0.821l0.178,0.206c-0.107-0.152,0.248,0.323,0.233,0.308l0.065,0.094l0.261,0.375
		l1.044,1.503c0.342,0.435,0.707,1.171,1.057,1.812l1.037,1.983c2.28,5.029,3.388,10.202,4.084,15.324
		c0.332,2.565,0.528,5.122,0.645,7.672c0.099,2.591,0.072,5.212-0.128,7.82c-0.203,2.617-0.57,5.254-1.259,7.898
		c-0.699,2.637-1.697,5.311-3.342,7.838c-0.375,0.638-0.902,1.235-1.366,1.84c-0.244,0.299-0.538,0.576-0.808,0.862l-0.416,0.422
		l-0.104,0.105c0.091-0.075-0.244,0.221-0.238,0.216l-0.174,0.144l-0.721,0.589c-0.364,0.264-0.735,0.522-1.109,0.771
		c-0.706,0.429-1.367,0.799-2.065,1.103c-1.382,0.619-2.755,1.033-4.044,1.351l-0.952,0.222l-1.049,0.189l-1.754,0.302l-1.749,0.301
		c-0.294,0.048-0.575,0.105-0.879,0.146l-0.966,0.085c-1.287,0.106-2.57,0.212-3.848,0.317c-0.645,0.071-1.266,0.065-1.883,0.053
		l-1.855-0.026c-1.233-0.041-2.464,0.019-3.677-0.158c-1.214-0.13-2.424-0.259-3.628-0.387c-0.604-0.046-1.197-0.159-1.786-0.283
		l-1.766-0.349l-1.756-0.35l-0.874-0.175l-0.854-0.245c-1.132-0.339-2.259-0.676-3.379-1.012c-1.132-0.297-2.196-0.768-3.27-1.186
		c-1.069-0.428-2.132-0.853-3.188-1.276c-1.016-0.507-2.026-1.011-3.029-1.511l-1.496-0.75l-0.372-0.187l-0.093-0.047l-0.187-0.102
		l-0.17-0.103l-0.678-0.411c-0.902-0.548-1.798-1.092-2.688-1.632l-1.33-0.807c-0.443-0.288-0.885-0.607-1.325-0.907
		c-0.878-0.609-1.75-1.213-2.614-1.812c-0.43-0.301-0.859-0.6-1.286-0.898c-0.402-0.31-0.802-0.619-1.201-0.926
		c-3.219-2.447-6.2-4.859-9.086-7.197c-1.427-1.167-2.825-2.31-4.191-3.428c-1.358-1.152-2.684-2.278-3.978-3.375
		c-2.519-2.285-4.933-4.41-7.044-6.6c-2.187-2.097-4.054-4.253-5.775-6.229c-0.894-0.957-1.594-2.021-2.34-2.961
		c-0.726-0.956-1.417-1.867-2.074-2.733c-1.21-1.807-2.228-3.458-3.123-4.879c-0.469-0.697-0.823-1.392-1.141-2.031
		c-0.324-0.634-0.619-1.21-0.883-1.726c-1.039-2.06-1.592-3.159-1.592-3.159s0.692,1.017,1.988,2.925
		c0.32,0.476,0.677,1.008,1.071,1.594c0.386,0.589,0.813,1.227,1.358,1.86c1.04,1.29,2.235,2.774,3.574,4.435
		c0.727,0.778,1.494,1.599,2.297,2.459c0.821,0.842,1.593,1.795,2.564,2.641c1.891,1.735,3.832,3.696,6.148,5.551
		c4.52,3.843,9.892,7.735,15.93,12.006c2.987,2.11,6.129,4.324,9.387,6.475c0.407,0.273,0.815,0.547,1.225,0.822
		c0.408,0.255,0.817,0.51,1.229,0.767c0.819,0.514,1.645,1.032,2.478,1.554c0.419,0.259,0.824,0.527,1.258,0.783
		c0.454,0.247,0.909,0.494,1.367,0.743c0.914,0.497,1.835,0.998,2.763,1.502l0.697,0.379l0.175,0.095
		c0.05,0.029-0.127-0.071-0.011-0.011l0.087,0.038l0.348,0.153l1.395,0.614c0.931,0.412,1.868,0.826,2.81,1.243
		c0.972,0.335,1.95,0.671,2.934,1.01c0.985,0.33,1.958,0.715,2.988,0.926c2.036,0.5,4.074,1.071,6.191,1.339l1.579,0.26
		c0.526,0.095,1.055,0.179,1.592,0.198c1.069,0.077,2.143,0.155,3.221,0.233c1.075,0.129,2.163,0.025,3.249,0.027l1.633-0.027
		c0.548,0,1.094-0.005,1.611-0.082c1.05-0.108,2.104-0.217,3.162-0.326l0.793-0.077c0.278-0.043,0.576-0.11,0.863-0.164l1.741-0.344
		l1.746-0.345l0.704-0.138l0.783-0.203c1.017-0.277,1.93-0.593,2.725-0.974c0.401-0.176,0.778-0.41,1.098-0.603
		c0.12-0.091,0.245-0.174,0.376-0.251c0.191-0.149,0.447-0.377,0.668-0.562l0.172-0.146c0.064-0.053-0.218,0.19-0.075,0.06
		l0.052-0.058l0.211-0.229c0.138-0.157,0.293-0.287,0.425-0.46c0.249-0.366,0.547-0.665,0.769-1.082
		c0.976-1.544,1.712-3.471,2.223-5.541c0.502-2.079,0.81-4.296,0.975-6.555c0.162-2.272,0.177-4.56,0.078-6.87
		c-0.118-2.351-0.316-4.693-0.617-6.998c-0.59-4.596-1.596-9.132-3.353-13.038l-0.653-1.271c-0.228-0.435-0.354-0.825-0.757-1.363
		l-1.022-1.518l-0.255-0.379l-0.064-0.095c-0.055-0.08,0.249,0.338,0.092,0.129l-0.121-0.139l-0.478-0.561
		c-1.287-1.478-2.792-2.655-4.489-3.495c-3.396-1.678-7.601-1.935-11.784-1.318c-0.533,0.063-1.005,0.177-1.511,0.259
		c-0.509,0.094-1.132,0.253-1.691,0.376c-1.04,0.291-2.077,0.581-3.111,0.871c-1.038,0.36-2.072,0.718-3.102,1.075
		c-1.011,0.417-2.018,0.832-3.021,1.245c-0.982,0.469-1.96,0.936-2.933,1.401c-0.95,0.519-1.895,1.035-2.836,1.549
		c-0.917,0.561-1.829,1.12-2.737,1.676c-0.893,0.563-1.729,1.159-2.595,1.731c-0.854,0.559-1.756,1.301-2.624,1.937l-0.655,0.494
		l-0.163,0.123c-0.042,0.031,0.064-0.053-0.016,0.013l-0.075,0.063l-0.301,0.253l-1.2,1.009c-1.623,1.304-3.123,2.744-4.623,4.141
		c-1.477,1.426-2.9,2.883-4.286,4.337c-1.359,1.488-2.721,2.927-4.013,4.407c-1.31,1.457-2.581,2.914-3.807,4.37
		c-1.241,1.439-2.431,2.884-3.602,4.294c-4.661,5.691-8.977,10.896-12.819,15.494c-3.804,4.63-7.259,8.554-9.872,11.92
		c-2.591,3.383-4.459,6.189-5.548,8.201c-0.587,0.987-0.95,1.801-1.237,2.322C20.138,114.512,19.997,114.785,19.997,114.785z"/>
</g>
</svg>
