<?xml version="1.0" encoding="utf-8"?>
<!-- Generator: Adobe Illustrator 17.1.0, SVG Export Plug-In . SVG Version: 6.00 Build 0)  -->
<!DOCTYPE svg PUBLIC "-//W3C//DTD SVG 1.1//EN" "http://www.w3.org/Graphics/SVG/1.1/DTD/svg11.dtd">
<svg version="1.1" id="Layer_1" xmlns="http://www.w3.org/2000/svg" xmlns:xlink="http://www.w3.org/1999/xlink" x="0px" y="0px"
	 viewBox="0 0 144 144" enable-background="new 0 0 144 144" xml:space="preserve">
<rect width="144" height="144"/>
<g>
	<path fill="#FFFFFF" d="M19.997,114.785c0,0,0.106-0.289,0.311-0.848c0.224-0.553,0.469-1.404,0.951-2.456
		c0.888-2.144,2.398-5.206,4.72-8.87c2.329-3.662,5.364-7.918,8.82-12.805c3.461-4.889,7.341-10.419,11.694-16.38
		c4.373-5.965,9.166-12.459,15.141-18.717c1.515-1.545,3.031-3.132,4.712-4.616l1.24-1.139l0.311-0.286l0.078-0.072l0.132-0.113
		l0.158-0.13l0.633-0.523c0.867-0.697,1.643-1.403,2.599-2.104c0.943-0.694,1.884-1.426,2.849-2.096
		c0.978-0.639,1.96-1.282,2.947-1.928c1.022-0.594,2.049-1.192,3.08-1.792c1.065-0.545,2.134-1.092,3.208-1.641
		c1.105-0.491,2.215-0.984,3.329-1.479c1.143-0.431,2.291-0.864,3.443-1.299c1.198-0.369,2.4-0.739,3.606-1.111
		c0.585-0.145,1.108-0.297,1.746-0.438c0.645-0.131,1.311-0.298,1.945-0.394c2.547-0.448,5.21-0.658,7.939-0.458
		c2.72,0.21,5.52,0.854,8.115,2.106c2.598,1.233,4.946,3.037,6.836,5.159l0.699,0.805l0.174,0.202
		c-0.09-0.128,0.217,0.287,0.211,0.279l0.065,0.094l0.259,0.376l1.039,1.506c0.346,0.443,0.697,1.154,1.039,1.78l1.015,1.934
		c2.255,4.95,3.367,10.081,4.066,15.168c0.33,2.549,0.517,5.093,0.63,7.63c0.094,2.573,0.063,5.173-0.14,7.758
		c-0.206,2.593-0.575,5.201-1.243,7.808c-0.681,2.601-1.657,5.228-3.254,7.693c-0.364,0.625-0.875,1.203-1.324,1.794
		c-0.236,0.291-0.521,0.56-0.782,0.837l-0.402,0.41l-0.101,0.102c0.076-0.062-0.223,0.203-0.218,0.199l-0.174,0.144l-0.717,0.589
		c-0.349,0.253-0.704,0.5-1.061,0.74c-0.681,0.415-1.324,0.779-2.003,1.075c-1.346,0.602-2.691,1.007-3.963,1.321l-0.942,0.219
		l-1.028,0.184l-1.754,0.302l-1.749,0.301c-0.294,0.048-0.575,0.105-0.879,0.145l-0.955,0.082c-1.272,0.104-2.54,0.207-3.804,0.31
		c-0.636,0.07-1.252,0.064-1.865,0.051l-1.84-0.02c-1.223-0.036-2.445,0.029-3.649-0.142c-1.206-0.124-2.407-0.247-3.602-0.37
		c-0.6-0.043-1.189-0.153-1.774-0.274l-1.755-0.34l-1.745-0.341l-0.869-0.17l-0.849-0.24c-1.126-0.334-2.246-0.666-3.36-0.996
		c-1.126-0.292-2.184-0.758-3.253-1.17c-1.064-0.422-2.121-0.842-3.172-1.26c-1.011-0.501-2.017-0.999-3.015-1.494l-1.49-0.741
		l-0.371-0.185l-0.093-0.046l-0.175-0.095l-0.17-0.103L69.522,93.8c-0.904-0.545-1.802-1.086-2.693-1.624l-1.332-0.803
		c-0.442-0.286-0.882-0.601-1.321-0.899c-0.875-0.603-1.744-1.202-2.606-1.796c-0.429-0.298-0.857-0.594-1.282-0.89
		c-0.403-0.308-0.803-0.615-1.203-0.92c-3.222-2.428-6.212-4.828-9.104-7.152c-1.432-1.161-2.834-2.298-4.204-3.409
		c-1.361-1.145-2.691-2.263-3.987-3.353c-2.526-2.268-4.948-4.378-7.066-6.553c-2.195-2.082-4.066-4.226-5.799-6.187
		c-0.899-0.95-1.603-2.007-2.354-2.941c-0.73-0.95-1.427-1.856-2.088-2.716c-1.219-1.796-2.246-3.439-3.151-4.851
		c-0.473-0.693-0.832-1.384-1.154-2.02c-0.329-0.631-0.627-1.204-0.894-1.717c-1.055-2.051-1.617-3.145-1.617-3.145
		s0.683,1.023,1.964,2.94c0.317,0.479,0.67,1.013,1.059,1.602c0.382,0.592,0.804,1.234,1.345,1.87
		c1.032,1.298,2.217,2.791,3.546,4.462c0.723,0.784,1.484,1.61,2.283,2.476c0.817,0.848,1.584,1.808,2.55,2.661
		c1.881,1.75,3.817,3.723,6.124,5.593c4.503,3.872,9.867,7.803,15.885,12.093c2.98,2.124,6.113,4.351,9.368,6.521
		c0.406,0.275,0.814,0.551,1.224,0.829c0.409,0.257,0.82,0.516,1.232,0.775c0.822,0.519,1.651,1.043,2.486,1.57
		c0.42,0.262,0.827,0.533,1.263,0.79l1.364,0.747c0.913,0.5,1.832,1.003,2.758,1.51l0.695,0.381l0.174,0.095
		c0.048,0.027-0.104-0.058,0.002-0.004l0.087,0.039l0.349,0.155l1.402,0.623c0.935,0.417,1.877,0.837,2.824,1.26
		c0.977,0.34,1.961,0.682,2.95,1.026c0.991,0.335,1.969,0.726,3.006,0.943c2.049,0.509,4.099,1.092,6.232,1.374l1.59,0.269
		c0.53,0.098,1.063,0.185,1.604,0.207c1.078,0.083,2.16,0.166,3.247,0.25c1.084,0.134,2.181,0.036,3.277,0.042l1.648-0.021
		c0.552,0,1.104-0.006,1.629-0.084c1.065-0.11,2.134-0.221,3.206-0.333l0.804-0.079c0.28-0.043,0.576-0.111,0.864-0.165l1.741-0.345
		l1.746-0.346l0.725-0.143l0.793-0.206c1.034-0.282,1.975-0.606,2.806-1.005c0.419-0.183,0.816-0.424,1.161-0.631
		c0.137-0.101,0.277-0.194,0.423-0.282c0.197-0.153,0.45-0.377,0.673-0.562l0.172-0.146c0.06-0.049-0.183,0.159-0.055,0.043
		l0.056-0.061l0.224-0.24c0.147-0.165,0.312-0.304,0.451-0.484c0.263-0.381,0.578-0.697,0.811-1.128
		c2.066-3.243,2.987-7.799,3.301-12.33c0.16-2.294,0.17-4.604,0.066-6.933c-0.122-2.364-0.328-4.718-0.632-7.04
		c-0.586-4.63-1.589-9.209-3.371-13.194l-0.676-1.32c-0.235-0.449-0.376-0.864-0.775-1.395l-1.026-1.514l-0.256-0.378l-0.064-0.095
		c-0.051-0.074,0.21,0.285,0.07,0.1l-0.125-0.144l-0.495-0.577c-1.334-1.52-2.901-2.737-4.663-3.598
		c-3.529-1.721-7.834-1.96-12.075-1.327c-0.54,0.066-1.025,0.183-1.54,0.268c-0.518,0.097-1.134,0.256-1.695,0.38
		c-1.051,0.297-2.099,0.592-3.144,0.887c-1.045,0.365-2.087,0.728-3.125,1.09c-1.018,0.422-2.032,0.842-3.042,1.261
		c-3.984,1.762-7.777,4.057-11.166,6.43c-0.86,0.568-1.754,1.308-2.622,1.948l-0.654,0.496l-0.163,0.124
		c-0.04,0.03,0.05-0.041-0.024,0.02l-0.075,0.064l-0.301,0.255l-1.203,1.018c-1.627,1.316-3.128,2.766-4.629,4.173
		c-1.478,1.435-2.9,2.901-4.285,4.363c-1.357,1.495-2.718,2.941-4.006,4.429c-1.306,1.465-2.572,2.929-3.793,4.391
		c-1.236,1.445-2.421,2.896-3.587,4.312c-4.64,5.709-8.928,10.936-12.744,15.553c-3.781,4.647-7.208,8.593-9.802,11.979
		c-2.573,3.401-4.417,6.225-5.493,8.246c-0.58,0.991-0.935,1.808-1.218,2.331C20.136,114.511,19.997,114.785,19.997,114.785z"/>
</g>
</svg>
